<svg width="161" height="161" viewBox="0 0 161 161" fill="none" xmlns="http://www.w3.org/2000/svg">
<g id="bug">
<path id="Combined Shape" d="M108.688 81.2262L107.511 79.0679C106.319 79.7178 105.88 81.211 106.53 82.403L108.688 81.2262ZM63.4832 112.294L62.3898 114.496L63.4832 112.294ZM41.1924 101.225L38.7494 100.951C38.6343 101.978 39.1736 102.967 40.099 103.427L41.1924 101.225ZM43.9636 76.4917L41.5206 76.2179L41.5206 76.2179L43.9636 76.4917ZM49.0288 68.953L47.852 66.7946L49.0288 68.953ZM81.2264 51.399L82.4032 53.5574L81.2264 51.399ZM94.567 55.3255L92.4086 56.5023C93.0585 57.6943 94.5517 58.1338 95.7437 57.4839L94.567 55.3255ZM106.53 82.403C108.479 85.9791 107.161 90.4587 103.585 92.4084L105.938 96.7252C111.898 93.4757 114.096 86.0097 110.846 80.0495L106.53 82.403ZM103.585 92.4084L71.3871 109.962L73.7406 114.279L105.938 96.7252L103.585 92.4084ZM71.3871 109.962C69.2741 111.114 66.732 111.163 64.5766 110.093L62.3898 114.496C65.9822 116.28 70.219 116.199 73.7406 114.279L71.3871 109.962ZM64.5766 110.093L42.2858 99.0231L40.099 103.427L62.3898 114.496L64.5766 110.093ZM43.6355 101.499L46.4067 76.7654L41.5206 76.2179L38.7494 100.951L43.6355 101.499ZM46.4067 76.7654C46.6746 74.3738 48.0926 72.2634 50.2055 71.1114L47.852 66.7946C44.3305 68.7146 41.9672 72.2319 41.5206 76.2179L46.4067 76.7654ZM50.2055 71.1114L82.4032 53.5574L80.0497 49.2406L47.852 66.7946L50.2055 71.1114ZM82.4032 53.5574C85.9793 51.6076 90.4589 52.9261 92.4086 56.5023L96.7254 54.1488C93.4759 48.1885 86.0099 45.9911 80.0497 49.2406L82.4032 53.5574ZM95.7437 57.4839C101.704 54.2345 109.17 56.432 112.419 62.3922L116.736 60.0387C112.187 51.6944 101.735 48.6179 93.3903 53.1671L95.7437 57.4839ZM112.419 62.3922C115.669 68.3524 113.471 75.8183 107.511 79.0679L109.865 83.3846C118.209 78.8353 121.285 68.383 116.736 60.0387L112.419 62.3922Z" fill="#E48257"/>
<path id="Path 25" d="M56.8986 47.8627L63.9591 60.813" stroke="#E48257" stroke-width="4.91667" stroke-linecap="round" stroke-linejoin="round"/>
<path id="Path 25_2" d="M80.4459 29.4249L76.5193 42.7654L81.2263 51.399" stroke="#E48257" stroke-width="4.91667" stroke-linecap="round" stroke-linejoin="round"/>
<path id="Path 25_3" d="M122.809 107.127L109.468 103.2L104.761 94.5669" stroke="#E48257" stroke-width="4.91667" stroke-linecap="round" stroke-linejoin="round"/>
<path id="Path 25_4" d="M28.6444 57.6669L41.985 61.5934L46.692 70.227" stroke="#E48257" stroke-width="4.91667" stroke-linecap="round" stroke-linejoin="round"/>
<path id="Path 25_5" d="M70.227 113.395L74.934 122.028L71.0074 135.369V135.369" stroke="#E48257" stroke-width="4.91667" stroke-linecap="round" stroke-linejoin="round"/>
<path id="Path 25_6" d="M87.4942 103.981L94.5547 116.931" stroke="#E48257" stroke-width="4.91667" stroke-linecap="round" stroke-linejoin="round"/>
</g>
</svg>
