<svg width="1254" height="909" viewBox="0 0 1254 909" fill="none" xmlns="http://www.w3.org/2000/svg">
<g filter="url(#filter0_d_28_233)">
<path d="M775.361 2279.35C744.41 2132.71 722.169 1983.57 722.457 1833.7C722.549 1785.11 725.062 1736.18 736.615 1688.98C760.174 1592.74 819.531 1509.76 860.156 1419.39C911.754 1304.61 932.376 1176.31 920.705 1051.09C911.92 956.862 888.791 845.393 910.083 751.679C929.426 666.544 1037.95 611.114 1095.58 552.413C1154.6 492.287 1194.11 414.117 1210.48 331.674C1219.05 288.483 1221.34 243.978 1216.71 200.17C1212.29 158.276 1190.08 114.215 1233.94 84.7855C1248.44 75.0587 1266.07 71.4734 1282.12 64.5927C1337.88 40.6775 1369.84 -28.162 1352.12 -86.1919" stroke="#E48257" stroke-width="1.1958" stroke-miterlimit="10"/>
<path d="M774.992 2273.29C741.92 2128.82 718.421 1980.61 718.612 1831.52C718.645 1781.87 721.988 1732.22 733.079 1683.92C746.536 1625.67 772.589 1571.95 800.127 1518.64C818.923 1482.24 838.415 1446.03 855.078 1408.71C887.989 1334.97 909.545 1256.24 919.363 1176.75C925.102 1130.28 926.815 1083.55 924.361 1037.33C922.702 1004.89 919.454 970.525 916.894 935.601C913.354 886.508 911.204 836.296 916.356 788.3C918.188 771.063 920.959 754.115 924.973 737.66C941.606 669.654 1010.8 618.872 1066.29 570.408C1081.2 557.433 1095.13 544.625 1106.8 531.682C1154.98 478.568 1188.65 412.868 1206 342.995C1208.99 330.965 1211.5 318.807 1213.52 306.556C1220.71 262.874 1221.78 217.908 1216.62 173.507C1213.55 147.211 1204.05 120.073 1207.46 95.9355C1209.56 81.073 1216.59 67.4377 1232.9 55.7675C1247.15 45.5716 1264.47 41.2394 1280.3 33.7693C1335.34 7.86855 1367.81 -61.4199 1351.06 -120.508" stroke="#E48257" stroke-width="1.1958" stroke-miterlimit="10"/>
<path d="M774.629 2267.23C739.43 2124.94 714.68 1977.65 714.775 1829.34C714.746 1778.62 718.918 1728.25 729.557 1678.86C742.469 1619.57 767.923 1564.64 795.159 1510.18C813.753 1472.99 833.181 1436.02 850.017 1398.02C883.287 1322.97 906.168 1243.33 918.24 1163.38C925.3 1116.65 928.632 1069.81 928.034 1023.57C927.732 991.059 925.945 956.751 924.857 921.936C923.423 872.962 923.409 822.953 930.025 774.664C932.362 757.344 935.547 740.27 939.878 723.624C957.896 654.716 1025.65 601.795 1079.14 551.215C1093.52 537.717 1106.85 524.353 1118.02 510.933C1163.86 455.862 1195.23 389.022 1210.24 318.287C1212.83 306.117 1214.93 293.818 1216.56 281.429C1222.38 237.251 1222.23 191.822 1216.52 146.833C1213.13 120.175 1203.67 92.6643 1206.98 68.0048C1209.01 52.807 1215.96 38.8594 1231.86 26.7373C1245.87 16.0613 1262.85 10.991 1278.49 2.93373C1332.79 -24.947 1365.77 -94.6955 1349.99 -154.828" stroke="#E48257" stroke-width="1.1958" stroke-miterlimit="10"/>
<path d="M774.263 2261.18C736.945 2121.05 710.932 1974.68 710.932 1827.17C710.847 1775.38 715.847 1724.3 726.024 1673.81C738.386 1613.47 763.247 1557.34 790.179 1501.73C808.565 1463.75 827.927 1426.01 844.95 1387.34C878.571 1310.98 902.785 1230.42 917.115 1150.03C925.493 1103.02 930.32 1056.08 931.706 1009.82C932.678 977.241 932.444 942.986 932.818 908.29C933.492 859.43 935.61 809.635 943.695 761.054C946.535 743.657 950.137 726.446 954.776 709.616C974.181 639.802 1040.34 584.614 1092 532.049C1105.81 517.995 1118.6 504.13 1129.25 490.212C1172.85 433.272 1201.81 365.199 1214.47 293.61C1216.66 281.294 1218.36 268.857 1219.61 256.334C1224.04 211.665 1222.68 165.773 1216.41 120.195C1212.69 93.1764 1203.29 65.2981 1206.49 40.1112C1208.46 24.5758 1215.32 10.3138 1230.83 -2.25897C1244.59 -13.4173 1261.25 -19.2213 1276.68 -27.8657C1330.25 -57.732 1363.74 -127.927 1348.93 -189.12" stroke="#E48257" stroke-width="1.1958" stroke-miterlimit="10"/>
<path d="M773.894 2255.13C734.455 2117.17 707.184 1971.72 707.08 1824.99C706.934 1772.12 712.665 1720.33 722.487 1668.75C734.186 1607.35 758.565 1550.03 785.191 1493.27C803.373 1454.5 822.665 1415.99 839.867 1376.66C873.842 1298.98 899.381 1217.51 915.97 1136.67C925.67 1089.4 932.083 1042.33 935.356 996.06C937.663 963.407 938.919 929.217 940.753 894.626C943.534 845.885 947.788 796.293 957.342 747.421C960.687 729.942 964.705 712.598 969.658 695.588C990.447 624.874 1055.11 567.514 1104.84 512.862C1118.11 498.274 1130.33 483.892 1140.47 469.477C1181.8 410.678 1208.38 341.367 1218.69 268.916C1220.48 256.455 1221.78 243.878 1222.64 231.22C1225.7 186.06 1223.12 139.7 1216.31 93.5362C1212.26 66.1561 1202.91 37.9128 1206 12.1961C1207.9 -3.67677 1214.67 -18.2589 1229.78 -31.2735C1243.3 -42.9197 1259.63 -49.454 1274.86 -58.6856C1327.69 -90.5374 1361.7 -161.187 1347.86 -223.425" stroke="#E48257" stroke-width="1.1958" stroke-miterlimit="10"/>
<path d="M773.529 2249.08C731.963 2113.29 703.435 1968.76 703.241 1822.81C703.038 1768.88 709.573 1716.37 718.962 1663.7C730.093 1601.24 753.897 1542.72 780.221 1484.82C798.195 1445.26 817.421 1405.98 834.808 1365.97C869.136 1287 896.005 1204.62 914.848 1123.31C925.865 1075.77 933.873 1028.6 939.029 982.311C942.674 949.59 945.33 915.448 948.717 880.974C953.488 832.337 960.109 782.998 971.015 733.805C974.906 716.254 979.297 698.774 984.567 681.572C1006.74 609.951 1069.92 550.434 1117.7 493.684C1130.43 478.569 1142.08 463.658 1151.7 448.745C1190.8 388.1 1214.97 317.538 1222.93 244.223C1224.31 231.62 1225.22 218.907 1225.69 206.103C1227.37 160.45 1223.58 113.622 1216.22 66.8713C1211.84 39.1299 1202.54 10.5136 1205.52 -15.7249C1207.35 -31.9354 1214.04 -46.8375 1228.76 -60.2939C1242.03 -72.428 1258.02 -79.6926 1273.05 -89.5114C1325.15 -123.343 1359.67 -194.447 1346.8 -257.743" stroke="#E48257" stroke-width="1.1958" stroke-miterlimit="10"/>
<path d="M773.159 2243.02C729.472 2109.4 699.687 1965.79 699.395 1820.63C699.128 1765.63 706.481 1712.41 715.426 1658.64C725.988 1595.14 749.223 1535.42 775.238 1476.37C793.01 1436.01 812.167 1395.96 829.731 1355.29C864.412 1275 892.606 1191.71 913.714 1109.95C926.053 1062.15 935.654 1014.85 942.691 968.558C947.676 935.763 951.805 901.679 956.666 867.323C963.529 818.793 972.318 769.676 984.676 720.185C989.075 702.559 993.873 684.937 999.462 667.557C1023.02 595.035 1084.71 533.361 1130.55 474.509C1142.74 458.867 1153.83 443.44 1162.93 428.015C1199.78 365.529 1221.54 293.711 1227.16 219.533C1228.15 206.785 1228.66 193.933 1228.74 180.996C1229.04 134.852 1224.03 87.5616 1216.12 40.2173C1211.42 12.1145 1202.16 -16.8691 1205.04 -43.6351C1206.8 -60.1776 1213.4 -75.4186 1227.72 -89.309C1240.75 -101.939 1256.42 -109.924 1271.24 -120.324C1322.61 -156.141 1357.64 -227.698 1345.74 -292.043" stroke="#E48257" stroke-width="1.1958" stroke-miterlimit="10"/>
<path d="M772.797 2236.97C726.99 2105.51 695.945 1962.83 695.558 1818.45C695.234 1762.38 703.402 1708.45 711.904 1653.58C721.902 1589.03 744.557 1528.1 770.27 1467.91C787.834 1426.75 806.924 1385.95 824.675 1344.61C859.708 1263.01 889.234 1178.8 912.594 1096.58C926.249 1048.52 937.449 1001.1 946.369 954.798C952.697 921.924 958.299 887.899 964.629 853.657C973.59 805.237 984.538 756.346 998.348 706.556C1003.26 688.856 1008.47 671.094 1014.37 653.528C1039.32 580.1 1099.51 516.281 1143.41 455.326C1155.06 439.158 1165.59 423.208 1174.16 407.277C1208.79 342.961 1228.13 269.871 1231.41 194.835C1231.99 181.942 1232.09 168.948 1231.79 155.879C1230.71 109.244 1224.49 61.4852 1216.04 13.5545C1211 -14.9097 1201.8 -44.2661 1204.57 -71.5539C1206.27 -88.4317 1212.77 -104.011 1226.7 -118.325C1239.49 -131.456 1254.83 -140.158 1269.44 -151.146C1320.09 -188.941 1355.62 -260.954 1344.7 -326.354" stroke="#E48257" stroke-width="1.1958" stroke-miterlimit="10"/>
<path d="M772.431 2230.92C724.498 2101.63 692.196 1959.87 691.711 1816.28C691.325 1759.14 700.314 1704.5 708.366 1648.53C717.807 1582.94 739.876 1520.8 765.281 1459.46C782.64 1417.51 801.661 1375.94 819.593 1333.92C854.979 1251.01 885.836 1165.89 911.45 1083.22C926.429 1034.88 939.233 987.345 950.02 941.039C957.696 908.088 964.764 874.125 972.569 840.001C983.621 791.688 996.729 743.022 1012 692.93C1017.42 675.151 1023.04 657.26 1029.26 639.508C1055.59 565.179 1114.29 499.218 1156.26 436.147C1167.36 419.453 1177.33 402.985 1185.38 386.55C1217.78 320.407 1234.7 246.047 1235.62 170.152C1235.8 157.117 1235.51 143.986 1234.83 130.771C1232.36 83.6451 1224.93 35.4182 1215.93 -13.1011C1210.56 -41.9265 1201.41 -71.6481 1204.07 -99.4657C1205.7 -116.681 1212.11 -132.603 1225.65 -147.336C1238.18 -160.971 1253.2 -170.385 1267.61 -181.962C1317.53 -221.743 1353.57 -294.21 1343.61 -360.658" stroke="#E48257" stroke-width="1.1958" stroke-miterlimit="10"/>
<path d="M772.062 2224.86C722.008 2097.75 688.448 1956.91 687.867 1814.09C687.425 1755.89 697.229 1700.53 704.839 1643.46C713.723 1576.83 735.206 1513.48 760.308 1450.99C777.46 1408.25 796.422 1365.91 814.53 1323.23C850.269 1239.01 882.452 1152.98 910.329 1069.86C926.624 1021.26 941.033 973.599 953.689 927.283C962.714 894.255 971.249 860.348 980.528 826.341C993.678 778.138 1008.94 729.695 1025.67 679.302C1031.6 661.447 1037.63 643.417 1044.16 625.479C1071.88 550.243 1129.11 482.143 1169.12 416.956C1179.68 399.743 1189.09 382.748 1196.61 365.805C1226.79 297.85 1241.29 222.205 1239.87 145.448C1239.65 132.269 1238.95 118.998 1237.88 105.648C1234.04 58.0315 1225.39 9.33967 1215.84 -39.7714C1210.14 -68.9527 1201.05 -99.0527 1203.59 -127.392C1205.16 -144.945 1211.47 -161.211 1224.63 -176.368C1236.91 -190.511 1251.6 -200.635 1265.81 -212.797C1315 -254.557 1351.56 -327.483 1342.57 -394.983" stroke="#E48257" stroke-width="1.1958" stroke-miterlimit="10"/>
<path d="M771.696 2218.81C719.52 2093.87 684.698 1953.95 684.025 1811.92C683.521 1752.64 694.145 1696.59 701.306 1638.41C709.634 1570.73 730.528 1506.18 755.331 1442.54C772.281 1399.01 791.171 1355.9 809.461 1312.55C845.553 1227.02 879.067 1140.07 909.198 1056.49C926.816 1007.62 942.835 959.847 957.353 913.523C967.731 880.421 977.728 846.568 988.477 812.677C1003.73 764.58 1021.14 716.363 1039.32 665.671C1045.76 647.742 1052.2 629.572 1059.05 611.453C1088.15 535.317 1143.9 465.085 1181.96 397.771C1191.99 380.033 1200.83 362.523 1207.83 345.066C1235.8 275.303 1247.86 198.37 1244.09 120.748C1243.47 107.422 1242.38 94.0139 1240.92 80.5292C1235.7 32.4218 1225.83 -16.7381 1215.73 -66.43C1209.71 -95.9726 1200.66 -126.44 1203.1 -155.307C1204.6 -173.197 1210.81 -189.809 1223.58 -205.382C1235.61 -220.036 1249.96 -230.895 1263.99 -243.616C1312.35 -287.465 1349.51 -360.737 1341.49 -429.295" stroke="#E48257" stroke-width="1.1958" stroke-miterlimit="10"/>
<path d="M771.333 2212.75C717.033 2089.98 680.959 1950.98 680.185 1809.75C679.625 1749.4 691.072 1692.63 697.782 1633.35C705.558 1564.63 725.86 1498.87 750.361 1434.09C767.102 1389.76 785.927 1345.89 804.402 1301.86C840.846 1215.03 875.693 1127.16 908.076 1043.13C927.01 994.001 944.649 946.099 961.026 899.774C972.758 866.598 984.223 832.801 996.438 799.03C1013.8 751.045 1033.35 703.046 1053 652.055C1059.94 634.044 1066.79 615.748 1073.96 597.437C1104.45 520.395 1158.73 448.033 1194.83 378.595C1204.32 360.34 1212.6 342.308 1219.07 324.335C1244.84 252.768 1254.45 174.536 1248.34 96.0574C1247.31 82.5916 1245.82 69.0422 1243.97 55.4194C1237.38 6.82111 1226.29 -42.8069 1215.64 -93.0874C1209.29 -122.991 1200.3 -153.829 1202.63 -183.22C1204.06 -201.443 1210.16 -218.413 1222.56 -234.392C1234.33 -249.566 1248.36 -261.124 1262.19 -274.43C1309.82 -320.259 1347.5 -393.99 1340.45 -463.595" stroke="#E48257" stroke-width="1.1958" stroke-miterlimit="10"/>
<path d="M770.964 2206.7C714.542 2086.1 677.206 1948.01 676.336 1807.56C675.711 1746.15 687.988 1688.67 694.242 1628.29C701.466 1558.53 721.182 1491.56 745.375 1425.63C761.912 1380.51 780.667 1335.87 799.321 1291.17C836.119 1203.02 872.29 1114.25 906.933 1029.76C927.19 980.362 946.44 932.343 964.681 886.005C977.767 852.754 990.699 819.014 1004.38 785.358C1023.85 737.479 1045.54 689.704 1066.65 638.42C1074.1 620.334 1081.37 601.898 1088.84 583.404C1120.72 505.461 1173.53 430.972 1207.66 359.406C1216.62 340.633 1224.34 322.081 1230.28 303.597C1253.85 230.229 1261.01 150.702 1252.55 71.3588C1251.12 57.7458 1249.23 44.0594 1247 30.2962C1239.01 -18.7952 1226.72 -68.8835 1215.52 -119.758C1208.84 -150.023 1199.9 -181.229 1202.12 -211.147C1203.49 -229.705 1209.48 -247.037 1221.5 -263.424C1233.01 -279.114 1246.73 -291.374 1260.36 -305.267C1307.25 -353.078 1345.44 -427.26 1339.36 -497.923" stroke="#E48257" stroke-width="1.1958" stroke-miterlimit="10"/>
<path d="M770.599 2200.65C712.056 2082.22 673.74 1945.06 672.494 1805.39C671.936 1742.91 684.918 1684.71 690.715 1623.24C697.395 1552.43 716.512 1484.26 740.397 1417.18C756.726 1371.27 775.417 1325.86 794.256 1280.5C831.405 1191.04 868.906 1101.35 905.809 1016.41C927.382 966.746 948.261 918.611 968.352 872.262C982.797 838.938 997.197 805.254 1012.34 771.715C1033.91 723.941 1057.74 676.397 1080.32 624.807C1088.27 606.645 1095.96 588.071 1103.74 569.391C1137.01 490.542 1188.36 413.933 1220.52 340.234C1228.94 320.943 1236.11 301.87 1241.51 282.871C1262.9 207.704 1267.59 126.878 1256.79 46.6789C1254.96 32.9211 1252.67 19.0953 1250.05 5.19732C1240.69 -44.3849 1227.18 -94.9414 1215.44 -146.402C1208.43 -177.029 1199.54 -208.607 1201.65 -239.048C1202.95 -257.943 1208.83 -275.63 1220.48 -292.424C1231.72 -308.635 1245.13 -321.592 1258.55 -336.067C1304.7 -385.86 1343.42 -460.5 1338.3 -532.21" stroke="#E48257" stroke-width="1.1958" stroke-miterlimit="10"/>
<path d="M770.235 2194.59C709.565 2078.33 669.998 1942.09 668.656 1803.21C668.042 1739.66 681.85 1680.76 687.192 1618.18C693.328 1546.33 711.846 1476.94 735.428 1408.72C751.555 1362.02 770.174 1315.84 789.193 1269.81C826.702 1179.04 865.523 1088.44 904.685 1003.04C927.582 953.107 950.084 904.854 972.024 858.499C987.835 825.1 1003.69 791.473 1020.3 758.049C1043.98 710.384 1069.94 663.059 1093.99 611.172C1102.45 592.928 1110.54 574.225 1118.65 555.361C1153.3 475.611 1203.19 396.878 1233.39 321.045C1241.27 301.231 1247.88 281.642 1252.75 262.128C1271.96 185.161 1274.19 103.039 1261.04 21.9747C1258.81 8.07751 1256.11 -5.88768 1253.1 -19.926C1242.37 -69.9991 1227.64 -121.026 1215.35 -173.073C1208.02 -204.059 1199.17 -236.004 1201.18 -266.975C1202.41 -286.207 1208.18 -304.258 1219.45 -321.45C1230.43 -338.19 1243.53 -351.829 1256.75 -366.896C1302.17 -418.67 1341.39 -493.764 1337.26 -566.529" stroke="#E48257" stroke-width="1.1958" stroke-miterlimit="10"/>
<path d="M769.865 2188.54C707.076 2074.45 666.243 1939.13 664.809 1801.03C664.138 1736.41 678.774 1676.81 683.654 1613.13C689.245 1540.23 707.164 1469.64 730.444 1400.27C746.363 1352.77 764.916 1305.83 784.12 1259.13C821.98 1167.06 862.133 1075.54 903.55 989.681C927.762 939.487 951.893 891.118 975.683 844.751C992.854 811.28 1010.18 777.71 1028.25 744.398C1054.04 696.849 1082.13 649.736 1107.65 597.557C1116.61 579.236 1125.12 560.396 1133.55 541.352C1169.58 460.695 1218.02 379.847 1246.24 301.876C1253.6 281.547 1259.64 261.437 1263.97 241.403C1281.01 162.644 1280.76 79.2113 1265.26 -2.71154C1262.63 -16.7559 1259.53 -30.8605 1256.14 -45.0313C1244.02 -95.5953 1228.08 -147.085 1215.24 -199.726C1207.58 -231.073 1198.78 -263.386 1200.68 -294.884C1201.85 -314.454 1207.49 -332.871 1218.4 -350.464C1229.12 -367.728 1241.91 -382.061 1254.92 -397.716C1299.61 -451.469 1339.35 -527.021 1336.18 -600.836" stroke="#E48257" stroke-width="1.1958" stroke-miterlimit="10"/>
<path d="M769.501 2182.49C704.591 2070.56 662.222 1936.17 660.971 1798.85C660.11 1733.16 675.709 1672.85 680.131 1608.07C685.178 1534.13 702.496 1462.33 725.475 1391.82C741.189 1343.53 759.678 1295.82 779.058 1248.44C817.272 1155.06 858.755 1062.63 902.429 976.319C927.965 925.857 953.723 877.377 979.361 830.991C997.902 797.452 1016.68 763.934 1036.21 730.738C1064.11 683.298 1094.33 636.404 1121.32 583.928C1130.78 565.53 1139.71 546.553 1148.45 527.322C1185.87 445.765 1232.86 362.796 1259.1 282.685C1265.92 261.838 1271.41 241.204 1275.2 220.664C1290.08 140.109 1287.35 55.3751 1269.5 -27.4099C1266.47 -41.5937 1262.98 -55.8431 1259.2 -70.1543C1245.7 -121.209 1228.54 -173.167 1215.16 -226.394C1207.17 -258.103 1198.42 -290.788 1200.21 -322.802C1201.32 -342.703 1206.84 -361.493 1217.39 -379.48C1227.82 -397.27 1240.35 -412.268 1253.13 -428.537C1297.19 -484.185 1337.33 -560.277 1335.14 -635.147" stroke="#E48257" stroke-width="1.1958" stroke-miterlimit="10"/>
<path d="M769.137 2176.43C702.1 2066.68 658.475 1933.21 657.125 1796.67C656.205 1729.92 672.632 1668.89 676.594 1603.01C681.103 1528.03 697.822 1455.02 720.487 1383.36C735.994 1334.27 754.418 1285.8 773.982 1237.75C812.548 1143.06 855.359 1049.71 901.292 962.949C928.144 912.223 955.536 863.63 983.019 817.229C1002.92 783.62 1023.17 750.164 1044.16 717.073C1074.18 669.749 1106.52 623.067 1134.98 570.3C1144.94 551.825 1154.29 532.716 1163.35 513.299C1202.15 430.835 1247.7 345.751 1271.94 263.507C1278.24 242.14 1283.17 220.993 1286.43 199.933C1299.15 117.579 1293.92 31.5472 1273.73 -52.1023C1270.29 -66.4331 1266.4 -80.8142 1262.24 -95.2635C1247.36 -146.809 1228.99 -199.229 1215.06 -253.051C1206.74 -285.121 1198.05 -318.172 1199.73 -350.715C1200.76 -370.953 1206.16 -390.111 1216.35 -408.493C1226.5 -426.81 1238.74 -442.496 1251.31 -459.352C1294.65 -516.98 1335.3 -593.532 1334.07 -669.455" stroke="#E48257" stroke-width="1.1958" stroke-miterlimit="10"/>
<path d="M768.766 2170.38C699.607 2062.8 654.725 1930.25 653.278 1794.5C652.295 1726.67 669.562 1664.94 673.061 1597.96C677.031 1521.94 693.145 1447.72 715.507 1374.91C730.812 1325.03 749.165 1275.79 768.908 1227.08C807.827 1131.07 851.969 1036.82 900.154 949.599C928.329 898.605 957.351 849.909 986.676 803.486C1007.95 769.81 1029.65 736.405 1052.1 703.433C1084.24 656.222 1118.7 609.752 1148.63 556.688C1159.1 538.131 1168.86 518.89 1178.23 499.287C1218.42 415.917 1262.54 328.717 1284.79 244.336C1290.56 222.456 1294.94 200.782 1297.65 179.207C1308.22 95.0594 1300.49 7.72519 1277.96 -76.7809C1274.12 -91.2567 1269.83 -105.777 1265.28 -120.361C1249.02 -172.398 1229.43 -225.288 1214.96 -279.688C1206.31 -312.119 1197.67 -345.543 1199.24 -378.609C1200.21 -399.184 1205.47 -418.707 1215.31 -437.491C1225.18 -456.339 1237.12 -472.713 1249.5 -490.156C1292.1 -549.768 1333.26 -626.768 1333 -703.746" stroke="#E48257" stroke-width="1.1958" stroke-miterlimit="10"/>
<path d="M768.403 2164.33C697.123 2058.92 650.983 1927.29 649.44 1792.32C648.402 1723.42 666.505 1660.98 669.535 1592.89C672.967 1515.83 688.476 1440.4 710.536 1366.45C725.633 1315.77 743.919 1265.77 763.848 1216.39C803.12 1119.07 848.588 1023.9 899.038 936.225C928.529 884.967 959.192 836.16 990.356 789.721C1013 755.983 1036.16 722.626 1060.07 689.762C1094.32 642.668 1130.9 596.407 1162.31 543.054C1173.28 524.42 1183.46 505.041 1193.14 485.258C1234.72 400.987 1277.39 311.665 1297.65 225.145C1302.89 202.744 1306.71 180.557 1308.88 158.463C1317.31 72.5149 1307.08 -16.1219 1282.2 -101.487C1277.95 -116.104 1273.27 -130.77 1268.33 -145.486C1250.69 -198.016 1229.89 -251.372 1214.86 -306.361C1205.89 -339.153 1197.29 -372.945 1198.75 -406.54C1199.66 -427.453 1204.78 -447.346 1214.27 -466.522C1223.86 -485.905 1235.51 -502.96 1247.68 -520.992C1289.55 -582.584 1331.23 -660.044 1331.94 -738.072" stroke="#E48257" stroke-width="1.1958" stroke-miterlimit="10"/>
<path d="M768.038 2158.28C694.633 2055.03 647.236 1924.32 645.598 1790.15C644.498 1720.18 663.44 1657.03 666.008 1587.84C668.903 1509.73 683.806 1433.1 705.563 1358C720.457 1306.54 738.672 1255.77 758.78 1205.71C798.405 1107.09 845.204 1011 897.906 922.877C928.721 871.351 961.013 822.441 994.019 775.981C1018.03 742.175 1042.66 708.878 1068.02 676.119C1104.4 629.143 1143.09 583.09 1175.97 529.441C1187.44 510.723 1198.04 491.22 1208.04 471.245C1251.01 386.068 1292.25 294.627 1310.51 205.973C1315.23 183.059 1318.49 160.345 1320.11 137.74C1326.4 49.9871 1313.66 -39.9415 1286.43 -126.169C1281.79 -140.931 1276.7 -155.73 1271.38 -170.593C1252.36 -223.619 1230.34 -277.432 1214.77 -333.015C1205.46 -366.163 1196.93 -400.33 1198.27 -434.45C1199.11 -455.7 1204.1 -475.966 1213.24 -495.529C1222.54 -515.445 1233.91 -533.185 1245.88 -551.803C1287.02 -615.379 1329.2 -693.289 1330.88 -772.37" stroke="#E48257" stroke-width="1.1958" stroke-miterlimit="10"/>
<path d="M767.668 2152.22C692.143 2051.14 643.488 1921.36 641.749 1787.96C640.592 1716.93 660.374 1653.07 662.469 1582.77C664.83 1503.63 679.123 1425.78 700.571 1349.54C715.256 1297.28 733.409 1245.74 753.701 1195.02C793.678 1095.08 841.809 998.084 896.766 909.5C928.896 857.709 962.832 808.696 997.676 762.206C1023.06 728.338 1049.14 695.095 1075.97 662.446C1114.46 615.594 1155.27 569.737 1189.63 515.8C1201.6 497.005 1212.62 477.364 1222.93 457.208C1267.28 371.131 1307.1 277.567 1323.36 186.777C1327.55 163.343 1330.26 140.104 1331.33 116.99C1335.49 27.4366 1320.24 -63.7881 1290.66 -150.88C1285.62 -165.789 1280.13 -180.725 1274.42 -195.723C1254.02 -249.24 1230.79 -303.521 1214.67 -359.69C1205.03 -393.2 1196.55 -427.735 1197.79 -462.381C1198.56 -483.962 1203.41 -504.603 1212.2 -524.565C1221.21 -545.009 1232.3 -563.437 1244.06 -582.639C1284.47 -648.201 1327.16 -726.565 1329.82 -806.696" stroke="#E48257" stroke-width="1.1958" stroke-miterlimit="10"/>
<path d="M767.305 2146.16C689.658 2047.26 639.741 1918.39 637.91 1785.78C636.689 1713.68 657.313 1649.12 658.944 1577.72C660.775 1497.53 674.453 1418.48 695.601 1341.08C710.083 1288.04 728.17 1235.73 748.638 1184.33C788.968 1083.09 838.422 985.181 895.644 896.143C929.098 844.085 964.669 794.971 1001.35 748.457C1028.11 714.529 1055.65 681.332 1083.93 648.792C1124.54 602.059 1167.46 556.407 1203.3 502.182C1215.77 483.302 1227.2 463.53 1237.83 443.188C1283.57 356.204 1321.97 260.526 1336.21 167.603C1339.88 143.65 1342.04 119.892 1342.56 96.2618C1344.59 4.90206 1326.82 -87.6132 1294.89 -175.564C1289.45 -190.613 1283.56 -205.694 1277.46 -220.826C1255.69 -274.834 1231.24 -329.583 1214.57 -386.341C1204.6 -420.212 1196.16 -455.119 1197.3 -490.288C1198 -512.206 1202.71 -533.216 1211.16 -553.572C1219.87 -574.55 1230.69 -593.662 1242.24 -613.448C1281.92 -680.991 1325.13 -759.812 1328.75 -840.993" stroke="#E48257" stroke-width="1.1958" stroke-miterlimit="10"/>
<path d="M766.94 2140.11C687.166 2043.38 635.996 1915.44 634.07 1783.61C632.792 1710.44 654.397 1645.17 655.419 1572.67C656.871 1491.43 669.79 1411.17 690.63 1332.63C704.904 1278.79 722.925 1225.72 743.577 1173.66C784.259 1071.1 835.045 972.282 894.521 882.785C929.291 830.463 966.503 781.251 1005.02 734.708C1033.15 700.719 1062.15 667.575 1091.89 635.145C1134.61 588.536 1179.54 543.008 1216.97 488.566C1229.91 469.583 1241.79 449.705 1252.74 429.177C1299.86 341.292 1336.84 243.486 1349.07 148.43C1352.22 123.958 1353.82 99.68 1353.8 75.5354C1353.7 -17.6306 1333.41 -111.442 1299.14 -200.249C1293.29 -215.443 1287 -230.66 1280.52 -245.936C1257.36 -300.435 1231.69 -355.649 1214.48 -412.999C1204.19 -447.231 1195.8 -482.503 1196.83 -518.202C1197.46 -540.457 1202.02 -561.837 1210.13 -582.585C1218.55 -604.098 1229.08 -623.893 1240.44 -644.267C1279.39 -713.795 1323.1 -793.065 1327.69 -875.304" stroke="#E48257" stroke-width="1.1958" stroke-miterlimit="10"/>
<path d="M766.57 2134.06C684.677 2039.49 632.249 1912.47 630.224 1781.43C628.884 1707.19 651.318 1641.21 651.882 1567.61C652.791 1485.33 665.11 1403.86 685.647 1324.18C699.72 1269.54 717.669 1215.71 738.501 1162.97C779.537 1059.1 831.648 959.368 893.381 869.421C929.475 816.831 968.32 767.524 1008.68 720.951C1038.18 686.903 1068.7 653.868 1099.83 621.486C1144.76 575.08 1191.74 529.673 1230.62 474.943C1244.07 455.883 1256.37 435.868 1267.63 415.154C1316.14 326.362 1351.7 226.437 1361.92 129.248C1364.55 104.257 1365.59 79.4547 1365.01 54.8023C1362.8 -40.1731 1339.97 -135.272 1303.36 -224.943C1297.11 -240.284 1290.42 -255.639 1283.55 -271.049C1259.02 -326.039 1232.13 -381.721 1214.37 -439.657C1203.75 -474.251 1195.42 -509.891 1196.34 -546.117C1196.9 -568.709 1201.32 -590.459 1209.1 -611.602C1217.21 -633.647 1227.48 -654.127 1238.62 -675.09C1276.84 -746.597 1321.07 -826.326 1326.63 -909.617" stroke="#E48257" stroke-width="1.1958" stroke-miterlimit="10"/>
<path d="M766.205 2128.01C682.191 2035.61 628.499 1909.51 626.376 1779.26C624.98 1703.95 648.243 1637.25 648.349 1562.56C648.708 1479.23 660.434 1396.56 680.663 1315.73C694.526 1260.3 712.413 1205.69 733.43 1152.29C774.82 1047.11 828.261 946.465 892.248 856.06C929.658 803.206 970.149 753.803 1012.34 707.192C1043.22 673.09 1075.19 640.098 1107.78 607.821C1154.82 561.532 1203.93 516.337 1244.28 461.309C1258.23 442.167 1270.95 422.021 1282.53 401.125C1332.42 311.433 1366.57 209.379 1374.77 110.06C1376.88 84.5512 1377.37 59.2241 1376.24 34.0606C1371.91 -62.7297 1346.55 -159.11 1307.59 -249.644C1300.94 -265.124 1293.86 -280.624 1286.6 -296.169C1260.69 -351.649 1232.59 -407.8 1214.28 -466.319C1203.33 -501.274 1195.04 -537.287 1195.85 -574.035C1196.35 -596.965 1200.62 -619.086 1208.06 -640.62C1215.86 -663.199 1225.86 -684.362 1236.81 -705.91C1274.3 -779.403 1319.04 -859.581 1325.57 -943.924" stroke="#E48257" stroke-width="1.1958" stroke-miterlimit="10"/>
<path d="M765.842 2121.95C679.701 2031.73 624.758 1906.55 622.539 1777.07C621.081 1700.69 645.178 1633.29 644.822 1557.49C644.636 1473.13 655.763 1389.25 675.689 1307.27C689.344 1251.05 707.165 1195.67 728.361 1141.6C770.102 1035.12 824.876 933.556 891.121 842.7C929.854 789.578 971.978 740.081 1016.01 693.441C1048.26 659.279 1081.67 626.334 1115.74 594.172C1164.89 548.003 1216.13 503.01 1257.94 447.695C1272.4 428.476 1285.53 408.192 1297.42 387.11C1348.7 296.512 1381.44 192.331 1387.62 90.8908C1389.21 64.8582 1389.15 39.0122 1387.47 13.3378C1381.02 -85.2653 1353.13 -182.93 1311.82 -274.328C1304.77 -289.956 1297.29 -305.586 1289.64 -321.272C1262.34 -377.246 1233.03 -433.856 1214.17 -492.97C1202.9 -528.286 1194.66 -564.664 1195.36 -601.941C1195.8 -625.202 1199.9 -647.699 1207.02 -669.626C1214.52 -692.737 1224.25 -714.584 1234.99 -736.722C1271.75 -812.201 1317 -892.833 1324.5 -978.226" stroke="#E48257" stroke-width="1.1958" stroke-miterlimit="10"/>
<path d="M765.473 2115.9C677.211 2027.84 621.005 1903.59 618.694 1774.9C617.179 1697.45 642.104 1629.33 641.291 1552.44C640.561 1467.03 651.089 1381.94 670.715 1298.81C684.167 1241.79 701.917 1185.66 723.293 1130.91C765.394 1023.11 821.487 920.64 889.992 829.328C930.04 775.941 973.884 726.423 1019.67 679.674C1053.34 645.512 1088.16 612.557 1123.69 580.502C1174.95 534.446 1228.32 489.67 1271.61 434.055C1286.56 414.754 1300.11 394.344 1312.32 373.076C1364.98 281.577 1396.5 175.273 1400.47 71.6949C1401.59 45.1455 1400.92 18.7735 1398.69 -7.41196C1390.13 -107.835 1359.71 -206.782 1316.06 -299.031C1308.6 -314.804 1300.71 -330.576 1292.68 -346.4C1264.01 -402.864 1233.49 -459.943 1214.08 -519.643C1202.48 -555.318 1194.29 -592.071 1194.88 -629.871C1195.25 -653.468 1199.2 -676.331 1205.99 -698.66C1213.17 -722.302 1222.65 -744.837 1233.18 -767.561C1269.2 -845.02 1314.97 -926.104 1323.44 -1012.55" stroke="#E48257" stroke-width="1.1958" stroke-miterlimit="10"/>
<path d="M765.107 2109.85C674.726 2023.96 617.262 1900.62 614.853 1772.72C613.275 1694.2 639.03 1625.38 637.76 1547.38C636.486 1460.93 646.421 1374.63 665.738 1290.36C678.983 1232.54 696.666 1175.64 718.229 1120.23C760.681 1011.12 818.107 907.733 888.866 815.963C930.236 762.314 975.698 712.689 1023.34 665.917C1058.38 631.691 1094.65 598.79 1131.64 566.845C1185 520.909 1240.52 476.336 1285.27 420.429C1300.74 401.054 1314.7 380.503 1327.22 359.055C1381.26 266.65 1411.34 158.214 1413.33 52.5148C1413.91 25.4423 1412.75 -1.4555 1409.92 -28.1404C1399.45 -130.408 1366.29 -230.607 1320.29 -323.721C1312.43 -339.635 1304.15 -355.55 1295.73 -371.506C1265.68 -428.462 1233.94 -486.005 1213.98 -546.297C1202.05 -582.334 1193.91 -619.454 1194.4 -657.781C1194.7 -681.716 1198.5 -704.948 1204.96 -727.667C1211.83 -751.837 1221.05 -775.06 1231.37 -798.366C1266.67 -877.811 1312.95 -959.349 1322.38 -1046.85" stroke="#E48257" stroke-width="1.1958" stroke-miterlimit="10"/>
<path d="M764.743 2103.79C672.235 2020.07 613.52 1897.66 611.013 1770.54C609.378 1690.96 635.962 1621.42 634.237 1542.32C632.413 1454.82 641.752 1367.32 660.769 1281.9C673.809 1223.3 691.43 1165.63 713.164 1109.54C755.971 999.128 814.727 894.827 887.742 802.606C930.431 748.687 977.517 698.957 1027.01 652.168C1063.41 617.875 1101.15 585.022 1139.6 553.193C1195.08 507.371 1252.72 463.012 1298.94 406.813C1314.91 387.356 1329.29 366.673 1342.13 345.039C1397.56 251.733 1426.19 141.158 1426.19 33.3392C1426.25 5.74593 1424.53 -21.6785 1421.16 -48.8721C1408.52 -152.958 1372.88 -254.434 1324.53 -348.412C1316.28 -364.471 1307.59 -380.52 1298.79 -396.616C1267.36 -454.062 1234.4 -512.074 1213.9 -572.954C1201.64 -609.352 1193.55 -646.843 1193.93 -685.694C1194.16 -709.967 1197.8 -733.562 1203.93 -756.68C1210.49 -781.381 1219.44 -805.291 1229.57 -829.185C1264.14 -910.607 1310.92 -992.602 1321.33 -1081.15" stroke="#E48257" stroke-width="1.1958" stroke-miterlimit="10"/>
<path d="M764.373 2097.74C669.743 2016.19 609.765 1894.7 607.163 1768.36C605.466 1687.71 632.884 1617.46 630.701 1537.26C628.333 1448.72 637.073 1360.01 655.782 1273.44C668.614 1214.05 686.169 1155.61 708.09 1098.86C751.248 987.133 811.329 881.92 886.606 789.236C930.616 735.056 979.323 685.213 1030.67 638.401C1068.43 604.044 1107.63 571.245 1147.56 539.523C1205.13 493.821 1264.92 449.667 1312.61 393.175C1329.08 373.64 1343.87 352.824 1357.02 331.005C1413.84 236.793 1441.02 124.084 1439.04 14.1439C1438.56 -13.9724 1436.29 -41.9179 1432.38 -69.6212C1417.57 -175.532 1379.46 -278.28 1328.76 -373.122C1320.11 -389.326 1311.02 -405.514 1301.83 -421.746C1269.02 -479.683 1234.85 -538.163 1213.8 -599.629C1201.21 -636.388 1193.18 -674.247 1193.45 -713.625C1193.61 -738.235 1197.04 -762.206 1202.9 -785.716C1209.09 -810.96 1217.84 -835.543 1227.75 -860.026C1261.59 -943.433 1308.88 -1025.88 1320.26 -1115.49" stroke="#E48257" stroke-width="1.1958" stroke-miterlimit="10"/>
<path d="M764.009 2091.69C667.258 2012.31 606.022 1891.74 603.322 1766.18C601.569 1684.46 629.813 1613.51 627.17 1532.21C624.258 1442.62 632.398 1352.7 650.804 1264.99C688.293 1086.32 768.557 916.326 885.478 775.877C964.127 681.402 1057.82 600.49 1155.51 525.874C1215.2 480.286 1277.12 436.346 1326.27 379.562C1416.64 275.169 1456.77 132.962 1451.9 -5.02317C1447.03 -143.009 1399.94 -277.037 1333 -397.799C1272.25 -507.39 1192.46 -616.228 1192.96 -741.525C1193.54 -884.822 1299.86 -1007.79 1319.2 -1149.77" stroke="#E48257" stroke-width="1.1958" stroke-miterlimit="10"/>
<path d="M170.035 1547.23C309.348 1606.23 469.554 1614.41 614.144 1569.88C655.28 1557.22 696.548 1539.49 725.447 1507.59C808.947 1415.42 771.526 1264.83 760.736 1153.96C747.721 1020.16 731.397 886.45 729.342 751.877C728.188 676.326 735.826 591.297 793.452 542.426C851.809 492.94 937.222 500.161 1013.73 501.292C1102.88 502.613 1193.92 491.354 1274.36 452.899C1354.8 414.443 1423.76 346.061 1448.54 260.415C1467.95 193.346 1459.49 121.457 1445.22 53.1085C1407.71 -126.476 1330.62 -297.681 1221.02 -444.816" stroke="#E48257" stroke-width="1.1958" stroke-miterlimit="10"/>
<path d="M174.636 1553.23C297.762 1605.38 436.673 1611.76 572.219 1577.42C584.808 1574.24 597.323 1570.77 609.71 1566.88C650.411 1554.08 691.204 1536.45 719.991 1505.13C803.291 1414.56 769.588 1267.57 760.478 1157.53C752.401 1059.98 741.783 962.044 736.468 862.971C734.568 828.577 733.278 794.144 732.89 759.651C732.054 684.831 739.638 600.825 795.578 551.801C852.223 502.164 935.033 507.403 1009.26 506.754C1095.75 505.992 1184.12 493.071 1262.38 453.854C1289.63 440.199 1315.55 423.035 1338.81 402.877C1382.35 365.167 1416.6 316.981 1432.82 261.756C1452.3 195.419 1444.99 124.499 1432.23 57.1742C1406.44 -79.1062 1358.6 -209.859 1290.69 -329.391C1270.42 -365.062 1248.38 -399.725 1224.58 -433.225" stroke="#E48257" stroke-width="1.1958" stroke-miterlimit="10"/>
<path d="M179.232 1559.22C298.253 1609.63 431.417 1610.94 568.235 1574.56C580.652 1571.26 593.028 1567.79 605.266 1563.87C645.528 1550.93 685.85 1533.41 714.531 1502.65C797.64 1413.67 767.643 1270.29 760.21 1161.09C753.682 1065.17 743.929 968.407 739.428 869.722C737.767 835.672 736.67 801.57 736.427 767.414C735.904 693.323 743.442 610.338 797.694 561.167C852.631 511.381 932.838 514.637 1004.78 512.212C1088.61 509.372 1174.31 494.778 1250.39 454.802C1276.87 440.879 1302.1 423.565 1324.77 403.365C1367.21 365.595 1400.8 317.709 1417.08 263.095C1436.62 197.49 1430.46 127.545 1419.22 61.2412C1396.54 -73.0078 1353.23 -201.168 1290.01 -319.028C1271.15 -354.199 1250.52 -388.443 1228.12 -421.633" stroke="#E48257" stroke-width="1.1958" stroke-miterlimit="10"/>
<path d="M183.832 1565.22C298.75 1613.89 426.153 1610.15 564.255 1571.71C576.509 1568.3 588.739 1564.82 600.823 1560.87C640.65 1547.79 680.495 1530.37 709.065 1500.19C791.974 1412.81 765.68 1273.05 759.943 1164.67C754.953 1070.38 746.303 974.781 742.382 876.489C741.035 842.775 740.056 809.013 739.96 775.188C739.755 701.829 747.241 619.861 799.803 570.548C853.033 520.614 930.631 521.884 1000.29 517.681C1081.46 512.758 1164.49 496.501 1238.39 455.769C1264.12 441.573 1288.65 424.113 1310.74 403.873C1352.08 366.038 1385 318.463 1401.33 264.447C1420.95 199.573 1415.93 130.604 1406.21 65.3213C1386.65 -66.9041 1347.85 -192.464 1289.33 -308.654C1271.87 -343.324 1252.66 -377.146 1231.65 -410.027" stroke="#E48257" stroke-width="1.1958" stroke-miterlimit="10"/>
<path d="M188.43 1571.21C299.243 1618.15 420.887 1609.38 560.274 1568.84C572.36 1565.32 584.453 1561.83 596.382 1557.85C635.771 1544.63 675.144 1527.31 703.607 1497.72C786.316 1411.93 763.708 1275.8 759.679 1168.23C756.21 1075.59 748.524 981.137 745.347 883.235C744.259 849.861 743.449 816.439 743.501 782.946C743.609 710.316 751.041 629.371 801.922 579.908C853.44 529.823 928.435 529.11 995.811 523.128C1074.32 516.121 1154.69 498.205 1226.41 456.709C1251.38 442.246 1275.21 424.64 1296.72 404.354C1336.96 366.458 1369.21 319.188 1385.61 265.774C1405.3 201.628 1401.42 133.633 1393.22 69.3763C1376.77 -60.8176 1342.49 -183.785 1288.67 -298.308C1272.61 -332.484 1254.83 -365.882 1235.21 -398.453" stroke="#E48257" stroke-width="1.1958" stroke-miterlimit="10"/>
<path d="M193.03 1577.21C299.739 1622.41 415.62 1608.65 556.295 1565.98C568.215 1562.36 580.163 1558.85 591.94 1554.85C630.893 1541.49 669.795 1524.27 698.144 1495.25C780.654 1411.06 761.72 1278.57 759.41 1171.79C757.442 1080.8 750.731 987.507 748.298 889.99C747.471 856.954 746.833 823.868 747.03 790.713C747.455 718.814 754.836 638.887 804.029 589.276C853.84 539.042 926.224 536.35 991.322 528.584C1067.18 519.501 1144.87 499.915 1214.41 457.655C1238.62 442.924 1261.76 425.167 1282.68 404.84C1321.82 366.885 1353.4 319.916 1369.86 267.111C1389.61 203.695 1386.87 136.674 1380.2 73.4384C1366.85 -54.7263 1337.11 -175.099 1287.98 -287.952C1273.32 -321.628 1256.96 -354.607 1238.73 -386.868" stroke="#E48257" stroke-width="1.1958" stroke-miterlimit="10"/>
<path d="M197.631 1583.21C300.235 1626.67 410.356 1607.95 552.321 1563.13C564.074 1559.42 575.881 1555.89 587.506 1551.84C626.018 1538.35 664.452 1521.24 692.693 1492.79C775.005 1410.19 759.73 1281.37 759.157 1175.36C758.672 1086.04 752.957 993.884 751.275 896.754C750.708 864.058 750.241 831.307 750.588 798.491C751.326 727.321 758.658 648.42 806.165 598.656C854.269 548.274 924.044 543.597 986.862 534.051C1060.06 522.886 1135.08 501.637 1202.44 458.615C1225.89 443.615 1248.33 425.714 1268.67 405.339C1306.72 367.32 1337.63 320.661 1354.14 268.456C1373.97 205.771 1372.37 139.72 1367.22 77.5116C1356.99 -48.6217 1331.76 -166.402 1287.33 -277.583C1274.08 -310.764 1259.13 -343.32 1242.3 -375.265" stroke="#E48257" stroke-width="1.1958" stroke-miterlimit="10"/>
<path d="M202.228 1589.2C300.729 1630.92 405.084 1607.28 548.339 1560.26C559.931 1556.46 571.594 1552.9 583.061 1548.83C621.141 1535.2 659.1 1518.18 687.228 1490.31C769.346 1409.31 757.706 1284.15 758.884 1178.92C759.866 1091.27 755.151 1000.25 754.224 903.5C753.912 871.142 753.628 838.73 754.115 806.25C755.171 735.811 762.451 657.928 808.27 608.017C854.661 557.483 921.839 550.826 982.368 539.505C1052.91 526.261 1125.26 503.345 1190.43 459.564C1213.13 444.299 1234.87 426.245 1254.62 405.83C1291.57 367.751 1321.81 321.396 1338.39 269.791C1358.28 207.839 1357.83 142.762 1354.2 81.5682C1347.08 -42.5359 1326.38 -157.721 1286.64 -267.237C1274.79 -299.919 1261.27 -332.057 1245.83 -363.691" stroke="#E48257" stroke-width="1.1958" stroke-miterlimit="10"/>
<path d="M206.828 1595.2C301.224 1635.18 399.819 1606.65 544.36 1557.41C555.787 1553.52 567.301 1549.93 578.621 1545.83C616.26 1532.06 653.745 1515.15 681.765 1487.84C763.684 1408.44 755.67 1286.96 758.62 1182.49C761.046 1096.51 757.358 1006.63 757.187 910.265C757.133 878.252 757.022 846.17 757.656 814.021C759.025 744.311 766.257 667.454 810.384 617.388C855.069 566.706 919.638 558.063 977.886 544.963C1045.76 529.636 1115.45 505.052 1178.44 460.515C1200.38 444.981 1221.43 426.783 1240.6 406.321C1276.44 368.181 1306.02 322.134 1322.65 271.127C1342.61 209.906 1343.31 145.805 1341.19 85.6297C1337.18 -36.443 1321 -149.036 1285.97 -256.88C1275.52 -289.067 1263.42 -320.778 1249.37 -352.107" stroke="#E48257" stroke-width="1.1958" stroke-miterlimit="10"/>
<path d="M211.43 1601.2C301.722 1639.44 394.563 1606.05 540.382 1554.55C551.645 1550.57 563.017 1546.95 574.18 1542.82C611.387 1528.92 648.397 1512.1 676.307 1485.38C758.029 1407.56 753.62 1289.77 758.355 1186.06C762.205 1101.77 759.551 1013.01 760.146 917.022C760.341 885.344 760.413 853.602 761.192 821.79C762.879 752.812 770.059 676.972 812.498 626.759C855.475 575.928 917.435 565.3 973.404 550.421C1038.62 533.011 1105.64 506.765 1166.45 461.464C1187.62 445.661 1207.98 427.313 1226.57 406.811C1261.31 368.606 1290.22 322.862 1306.91 272.468C1326.95 211.981 1328.79 148.848 1328.19 89.6992C1327.29 -30.3443 1315.63 -140.343 1285.29 -246.516C1276.24 -278.204 1265.57 -309.497 1252.91 -340.509" stroke="#E48257" stroke-width="1.1958" stroke-miterlimit="10"/>
<path d="M216.024 1607.2C302.21 1643.7 389.298 1605.48 536.403 1551.69C547.505 1547.63 558.73 1543.98 569.747 1539.81C606.512 1525.77 643.054 1509.06 670.852 1482.91C752.375 1406.69 751.553 1292.59 758.1 1189.62C763.351 1107.02 761.75 1019.38 763.119 923.772C763.566 892.437 763.818 861.027 764.742 829.552C766.742 761.303 773.874 686.489 814.627 636.123C855.897 585.144 915.248 572.53 968.936 555.872C1031.49 536.385 1095.84 508.47 1154.47 462.407C1174.89 446.339 1194.56 427.841 1212.56 407.296C1246.2 369.032 1274.44 323.593 1291.19 273.797C1311.3 214.035 1314.28 151.884 1315.2 93.7562C1317.41 -24.256 1310.28 -131.66 1284.64 -236.169C1276.99 -267.356 1267.74 -298.231 1256.47 -328.933" stroke="#E48257" stroke-width="1.1958" stroke-miterlimit="10"/>
<path d="M220.627 1613.19C302.708 1647.96 384.053 1604.94 532.425 1548.83C543.366 1544.69 554.441 1541 565.306 1536.81C601.639 1522.63 637.707 1506.02 665.395 1480.44C746.718 1405.82 749.456 1295.43 757.836 1193.19C764.465 1112.28 763.941 1025.76 766.076 930.534C766.77 899.54 767.207 868.464 768.276 837.327C770.593 769.809 777.668 696.01 816.736 645.505C856.294 594.375 913.045 579.786 964.443 561.339C1024.35 539.771 1086.02 510.192 1142.47 463.373C1162.13 447.036 1181.1 428.393 1198.51 407.8C1231.06 369.477 1258.63 324.343 1275.45 275.148C1295.61 216.117 1299.75 154.935 1302.19 97.832C1307.5 -18.1509 1304.9 -122.96 1283.95 -225.796C1277.71 -256.489 1269.87 -286.941 1260 -317.327" stroke="#E48257" stroke-width="1.1958" stroke-miterlimit="10"/>
<path d="M225.223 1619.18C303.201 1652.21 378.812 1604.44 528.441 1545.97C539.219 1541.76 550.161 1538.04 560.862 1533.8C596.783 1519.55 632.347 1502.97 659.927 1477.97C741.056 1404.94 747.333 1298.26 757.56 1196.76C765.543 1117.54 766.109 1032.13 769.029 937.289C769.97 906.634 770.594 875.901 771.813 845.09C774.443 778.301 781.47 705.528 818.852 654.869C856.702 603.591 910.845 587.017 959.96 566.797C1017.21 543.145 1076.21 511.904 1130.48 464.321C1149.38 447.716 1167.65 428.922 1184.48 408.289C1215.93 369.899 1242.83 325.071 1259.7 276.487C1279.94 218.188 1285.22 157.981 1289.18 101.899C1297.6 -12.0529 1299.52 -114.269 1283.27 -215.436C1278.43 -245.629 1272.01 -275.662 1263.53 -305.74" stroke="#E48257" stroke-width="1.1958" stroke-miterlimit="10"/>
<path d="M229.823 1625.19C303.697 1656.47 373.586 1603.98 524.464 1543.11C535.084 1538.83 545.87 1535.06 556.421 1530.79C591.907 1516.41 627 1499.93 654.472 1475.5C735.404 1404.07 745.189 1301.1 757.304 1200.32C766.618 1122.81 768.296 1038.51 771.994 944.048C773.179 913.739 773.991 883.335 775.354 852.861C778.303 786.804 785.277 715.048 820.971 664.242C857.115 612.815 908.649 594.257 955.484 572.257C1010.07 546.528 1066.4 513.619 1118.49 465.274C1136.64 448.397 1154.21 429.462 1170.46 408.777C1200.81 370.328 1227.04 325.806 1243.98 277.821C1264.29 220.254 1270.71 161.023 1276.19 105.961C1287.72 -5.96104 1294.17 -105.583 1282.62 -205.082C1279.18 -234.781 1274.18 -264.39 1267.1 -294.158" stroke="#E48257" stroke-width="1.1958" stroke-miterlimit="10"/>
<path d="M234.426 1631.18C304.195 1660.73 368.373 1603.56 520.487 1540.25C530.949 1535.9 541.587 1532.09 551.984 1527.78C587.035 1513.26 621.653 1496.88 649.011 1473.03C729.744 1403.19 743.018 1303.94 757.037 1203.88C767.657 1128.07 770.463 1044.89 774.955 950.799C776.388 920.831 777.384 890.761 778.893 860.625C782.154 795.296 789.08 724.566 823.088 673.608C857.519 622.03 906.45 601.488 951.004 577.709C1002.93 549.897 1056.6 515.32 1106.5 466.217C1123.89 449.072 1140.76 429.987 1156.43 409.261C1185.68 370.753 1211.24 326.536 1228.24 279.15C1248.61 222.313 1256.18 164.052 1263.18 110.009C1277.83 0.118623 1288.79 -96.9107 1281.94 -194.74C1279.9 -223.939 1276.32 -253.13 1270.63 -282.582" stroke="#E48257" stroke-width="1.1958" stroke-miterlimit="10"/>
<path d="M239.021 1637.18C304.685 1664.99 363.169 1603.17 516.507 1537.4C526.809 1532.98 537.299 1529.12 547.541 1524.78C582.156 1510.13 616.303 1493.85 643.554 1470.57C724.086 1402.32 740.816 1306.79 756.778 1207.46C768.684 1133.35 772.635 1051.27 777.92 957.558C779.593 927.928 780.781 898.195 782.434 868.396C786.013 803.799 792.888 734.086 825.207 682.98C857.931 631.254 904.259 608.729 946.527 583.17C995.794 553.279 1046.79 517.035 1094.52 467.175C1111.14 449.762 1127.32 430.532 1142.4 409.758C1170.56 371.186 1195.45 327.272 1212.5 280.496C1232.94 224.393 1241.66 167.106 1250.18 114.084C1267.93 6.22241 1283.42 -88.2123 1281.26 -184.369C1280.63 -213.071 1278.48 -241.839 1274.18 -270.982" stroke="#E48257" stroke-width="1.1958" stroke-miterlimit="10"/>
<path d="M243.623 1643.17C305.184 1669.24 357.987 1602.83 512.531 1534.53C522.678 1530.05 533.018 1526.13 543.104 1521.77C577.282 1506.97 610.91 1490.74 638.094 1468.09C718.295 1401.28 738.582 1309.63 756.512 1211.01C769.673 1138.6 774.792 1057.64 780.881 964.309C782.793 935.023 784.173 905.621 785.971 876.159C789.863 812.291 796.689 743.604 827.323 692.346C858.342 640.465 902.059 615.961 942.044 588.627C988.653 556.654 1036.98 518.747 1082.52 468.123C1098.39 450.444 1113.87 431.062 1128.37 410.248C1155.42 371.613 1179.65 328.008 1196.76 281.832C1217.28 226.455 1227.13 170.143 1237.18 118.148C1258.04 12.3175 1278.05 -79.5248 1280.59 -174.017C1281.36 -202.219 1280.63 -230.568 1277.72 -259.404" stroke="#E48257" stroke-width="1.1958" stroke-miterlimit="10"/>
<path d="M248.216 1649.17C305.673 1673.51 352.816 1602.51 508.544 1531.68C518.537 1527.13 528.72 1523.16 538.655 1518.76C572.397 1503.84 605.551 1487.71 632.622 1465.63C712.629 1400.42 736.311 1312.48 756.231 1214.59C770.621 1143.88 776.928 1064.02 783.823 971.073C785.969 942.129 787.547 913.06 789.493 883.93C793.703 820.792 800.477 753.124 829.417 701.716C858.724 649.684 899.835 623.202 937.542 594.084C981.492 560.028 1027.15 520.459 1070.51 469.073C1085.62 451.125 1100.41 431.593 1114.32 410.738C1140.28 372.045 1163.83 328.742 1181.01 283.167C1201.59 228.523 1212.59 173.183 1224.15 122.208C1248.12 18.407 1272.66 -70.8461 1279.9 -163.661C1282.07 -191.368 1282.76 -219.288 1281.24 -247.813" stroke="#E48257" stroke-width="1.1958" stroke-miterlimit="10"/>
<path d="M252.818 1655.17C306.175 1677.77 347.668 1602.24 504.568 1528.81C514.405 1524.21 524.436 1520.18 534.219 1515.75C567.522 1500.68 600.208 1484.65 627.171 1463.15C706.98 1399.53 734.017 1315.3 755.979 1218.14C771.573 1149.13 779.088 1070.39 786.797 977.823C789.177 949.22 790.959 920.487 793.044 891.692C797.566 829.283 804.287 762.638 831.546 711.079C859.146 658.899 897.649 630.432 933.075 599.535C974.369 563.403 1017.35 522.167 1058.54 470.016C1072.89 451.8 1086.98 432.124 1100.31 411.223C1125.17 372.465 1148.05 329.468 1165.29 284.498C1185.95 230.585 1198.08 176.221 1211.17 126.267C1238.25 24.4974 1267.32 -62.1609 1279.24 -153.308C1282.82 -180.515 1284.92 -208.017 1284.8 -236.232" stroke="#E48257" stroke-width="1.1958" stroke-miterlimit="10"/>
<path d="M257.419 1661.17C306.671 1682.03 342.547 1602.02 500.594 1525.96C510.279 1521.3 520.151 1517.2 529.782 1512.75C562.65 1497.55 594.862 1481.62 621.711 1460.7C701.327 1398.67 731.686 1318.14 755.713 1221.72C772.49 1154.4 781.22 1076.77 789.754 984.585C792.368 956.324 794.348 927.924 796.583 899.468C801.423 837.792 808.093 772.164 833.664 720.458C859.556 668.129 895.456 637.679 928.596 605.001C967.232 566.786 1007.55 523.887 1046.55 470.978C1060.14 452.496 1073.53 432.667 1086.28 411.724C1110.03 372.906 1132.25 330.215 1149.54 285.849C1170.26 232.666 1183.55 179.273 1198.16 130.345C1228.35 30.6046 1261.94 -53.4591 1278.57 -142.939C1283.54 -169.646 1287.07 -196.73 1288.34 -224.634" stroke="#E48257" stroke-width="1.1958" stroke-miterlimit="10"/>
<path d="M262.016 1667.16C307.165 1686.28 337.442 1601.83 496.611 1523.1C506.145 1518.38 515.862 1514.22 525.338 1509.74C557.768 1494.39 589.511 1478.57 616.25 1458.23C695.674 1397.79 729.312 1320.96 755.451 1225.28C773.386 1159.64 783.356 1083.14 792.721 991.338C795.568 963.419 797.744 935.358 800.126 907.234C805.28 846.286 811.903 781.678 835.783 729.831C859.963 677.351 893.26 644.918 924.119 610.461C960.096 570.163 997.743 525.596 1034.56 471.931C1047.4 453.181 1060.1 433.207 1072.26 412.218C1094.91 373.339 1116.46 330.953 1133.82 287.189C1154.61 234.74 1169.04 182.32 1185.16 134.411C1218.46 36.7022 1256.57 -44.7692 1277.9 -132.577C1284.28 -158.79 1289.23 -185.45 1291.89 -213.038" stroke="#E48257" stroke-width="1.1958" stroke-miterlimit="10"/>
<path d="M266.618 1673.16C307.663 1690.54 332.367 1601.68 492.635 1520.23C502.022 1515.47 511.578 1511.24 520.9 1506.73C552.891 1491.24 584.199 1475.58 610.791 1455.75C690.137 1397.07 726.901 1323.75 755.186 1228.84C774.251 1164.87 785.482 1089.51 795.677 998.088C798.752 970.507 801.131 942.782 803.659 914.995C809.13 854.779 815.699 791.195 837.894 739.194C860.367 686.566 891.055 652.148 919.631 615.918C952.948 573.541 987.925 527.307 1022.56 472.878C1034.64 453.859 1046.64 433.735 1058.22 412.705C1079.78 373.762 1100.65 331.687 1118.07 288.521C1138.93 236.797 1154.51 185.353 1172.15 138.465C1208.56 42.7851 1251.2 -36.0915 1277.22 -122.229C1285 -147.942 1291.37 -174.181 1295.42 -201.464" stroke="#E48257" stroke-width="1.1958" stroke-miterlimit="10"/>
<path d="M271.212 1679.15C308.152 1694.8 327.31 1601.58 488.649 1517.38C497.884 1512.56 507.281 1508.26 516.453 1503.72C548.007 1488.09 578.846 1472.53 605.328 1453.29C684.479 1396.2 724.448 1326.54 754.913 1232.41C775.081 1170.11 787.589 1095.89 798.633 1004.85C801.936 977.609 804.519 950.219 807.194 922.764C812.978 863.277 819.501 800.712 840.007 748.565C860.773 695.788 888.853 659.385 915.148 621.375C945.806 576.916 978.113 529.019 1010.57 473.828C1021.89 454.538 1033.2 434.274 1044.19 413.197C1064.65 374.194 1084.86 332.419 1102.33 289.862C1123.26 238.869 1139.98 188.401 1159.15 142.534C1198.67 48.8856 1245.83 -27.3986 1276.55 -111.869C1285.73 -137.088 1293.53 -162.903 1298.97 -189.87" stroke="#E48257" stroke-width="1.1958" stroke-miterlimit="10"/>
<path d="M275.815 1685.15C308.649 1699.06 322.297 1601.51 484.677 1514.52C493.764 1509.65 503.003 1505.29 512.018 1500.72C543.133 1484.95 573.501 1469.5 599.872 1450.82C678.824 1395.33 721.96 1329.3 754.656 1235.98C775.908 1175.32 789.712 1102.26 801.6 1011.6C805.131 984.701 807.923 957.65 810.737 930.53C816.839 871.774 823.309 810.232 842.129 757.932C861.182 705.004 886.662 666.626 910.673 626.83C938.673 580.287 968.309 530.728 998.585 474.778C1009.14 455.22 1019.76 434.806 1030.16 413.686C1049.52 374.619 1069.06 333.152 1086.6 291.198C1107.6 240.937 1125.46 191.443 1146.15 146.597C1188.77 54.9781 1240.46 -18.7113 1275.88 -101.512C1286.46 -126.23 1295.67 -151.628 1302.51 -178.284" stroke="#E48257" stroke-width="1.1958" stroke-miterlimit="10"/>
<path d="M280.415 1691.15C309.144 1703.32 317.306 1601.5 480.699 1511.66C489.643 1506.75 498.707 1502.29 507.579 1497.71C538.228 1481.74 568.155 1466.45 594.41 1448.35C673.165 1394.45 719.422 1332.05 754.388 1239.54C776.701 1180.52 791.807 1108.63 804.558 1018.36C808.31 991.801 811.313 965.082 814.273 938.299C820.687 880.272 827.11 819.751 844.243 767.303C861.588 714.227 884.459 673.863 906.191 632.288C931.534 583.67 958.497 532.441 986.595 475.729C996.394 455.902 1006.32 435.339 1016.13 414.178C1034.39 375.049 1053.27 333.891 1070.86 292.534C1091.93 243.005 1110.94 194.481 1133.14 150.659C1178.88 61.0713 1235.08 -10.0258 1275.2 -91.1537C1287.19 -115.378 1297.82 -140.352 1306.05 -166.697" stroke="#E48257" stroke-width="1.1958" stroke-miterlimit="10"/>
<path d="M285.012 1697.14C309.639 1707.57 312.348 1601.52 476.716 1508.8C485.512 1503.84 494.411 1499.31 503.139 1494.7C533.347 1478.6 562.8 1463.41 588.953 1445.88C667.508 1393.58 716.846 1334.76 754.13 1243.11C777.48 1185.71 793.911 1115 807.523 1025.12C811.497 998.897 814.71 972.516 817.82 946.072C824.552 888.777 830.916 829.276 846.368 776.678C862.007 723.453 882.269 681.105 901.72 637.75C924.405 587.049 948.696 534.158 974.618 476.685C983.661 456.591 992.882 435.881 1002.12 414.674C1019.28 375.486 1037.48 334.625 1055.14 293.876C1076.28 245.078 1096.43 197.531 1120.15 154.73C1169 67.171 1229.73 -1.33138 1274.55 -80.7946C1287.93 -104.519 1299.99 -129.075 1309.61 -155.107" stroke="#E48257" stroke-width="1.1958" stroke-miterlimit="10"/>
<path d="M289.612 1703.14C310.134 1711.83 307.428 1601.59 472.736 1505.95C481.39 1500.94 490.125 1496.34 498.699 1491.7C528.474 1475.45 557.453 1460.37 583.492 1443.41C661.848 1392.71 714.227 1337.44 753.863 1246.67C778.233 1190.87 795.996 1121.36 810.482 1031.88C814.673 1005.99 818.101 979.947 821.358 953.836C828.403 897.269 834.721 838.789 848.479 786.041C862.41 732.668 880.064 688.334 897.232 643.207C917.256 590.428 938.879 535.868 962.618 477.631C970.901 457.27 979.428 436.409 988.082 415.161C1004.14 375.909 1021.68 335.359 1039.39 295.214C1060.6 247.149 1081.9 200.569 1107.14 158.795C1159.1 73.2673 1224.36 7.35973 1273.86 -70.4334C1288.65 -93.6577 1302.13 -117.795 1313.14 -143.517" stroke="#E48257" stroke-width="1.1958" stroke-miterlimit="10"/>
<path d="M294.208 1709.13C310.625 1716.09 302.54 1601.71 468.754 1503.08C477.263 1498.03 485.838 1493.35 494.254 1488.68C523.588 1472.3 552.099 1457.32 578.03 1440.94C656.192 1391.84 711.564 1340.07 753.592 1250.24C778.966 1196.01 798.07 1127.72 813.435 1038.63C817.841 1013.08 821.485 987.377 824.887 961.602C832.251 905.767 838.514 848.31 850.586 795.409C862.806 741.885 877.861 695.571 892.743 648.662C910.109 593.8 929.063 537.573 950.623 478.579C958.145 457.949 965.977 436.944 974.052 415.645C989.016 376.334 1005.88 336.089 1023.66 296.544C1044.93 249.204 1067.38 203.606 1094.14 162.85C1149.2 79.3522 1218.98 16.0392 1273.19 -60.0815C1289.38 -82.8113 1304.28 -106.525 1316.69 -131.936" stroke="#E48257" stroke-width="1.1958" stroke-miterlimit="10"/>
<path d="M298.808 1715.13C311.121 1720.35 297.698 1601.87 464.78 1500.23C473.152 1495.13 481.55 1490.39 489.819 1485.68C518.721 1469.16 546.757 1454.28 572.572 1438.48C650.537 1390.96 708.864 1342.68 753.333 1253.81C779.692 1201.13 800.144 1134.09 816.405 1045.39C821.028 1020.18 824.89 994.821 828.434 969.376C836.11 914.27 842.328 857.833 852.709 804.79C863.221 751.117 875.668 702.818 888.269 654.13C902.977 597.185 919.26 539.295 938.635 479.543C945.402 458.647 952.535 437.489 960.021 416.148C973.881 376.775 990.08 336.831 1007.92 297.891C1029.26 251.284 1052.85 206.66 1081.13 166.919C1139.31 85.4506 1213.61 24.7324 1272.52 -49.7237C1290.11 -71.9536 1306.43 -95.2471 1320.23 -120.344" stroke="#E48257" stroke-width="1.1958" stroke-miterlimit="10"/>
<path d="M303.411 1721.13C311.62 1724.6 292.897 1602.07 460.802 1497.37C469.035 1492.24 477.266 1487.41 485.379 1482.68C513.839 1466.02 541.401 1451.24 567.116 1436.01C644.882 1390.09 706.126 1345.24 753.071 1257.38C780.4 1206.23 802.206 1140.44 819.364 1052.15C824.196 1027.27 828.281 1002.25 831.969 977.145C839.964 922.77 846.127 867.357 854.823 814.161C863.628 760.34 873.467 710.055 883.787 659.588C895.833 600.565 909.448 541.008 926.646 480.494C932.652 459.33 939.09 438.027 945.995 416.64C958.758 377.202 974.288 337.569 992.18 299.232C1013.59 253.357 1038.33 209.703 1068.13 170.989C1129.42 91.5515 1208.24 33.4257 1271.85 -39.358C1290.84 -61.0934 1308.59 -83.9632 1323.77 -108.752" stroke="#E48257" stroke-width="1.1958" stroke-miterlimit="10"/>
<path d="M308.008 1727.12C312.112 1728.86 288.134 1602.32 456.821 1494.5C464.917 1489.33 472.972 1484.42 480.937 1479.66C508.962 1462.87 536.053 1448.18 561.652 1433.53C639.218 1389.21 703.343 1347.73 752.806 1260.93C781.098 1211.28 804.152 1146.76 822.327 1058.9C827.341 1034.35 831.676 1009.67 835.51 984.903C843.817 931.257 849.934 876.864 856.941 823.521C864.034 769.549 871.267 717.287 879.309 665.035C888.697 603.929 899.641 542.709 914.656 481.431C919.902 459.999 925.646 438.546 931.968 417.118C943.633 377.622 958.494 338.294 976.448 300.557C997.928 255.413 1023.81 212.733 1055.13 175.039C1119.52 97.6311 1202.87 42.1 1271.17 -29.0136C1291.57 -50.249 1310.73 -72.7007 1327.31 -97.1739" stroke="#E48257" stroke-width="1.1958" stroke-miterlimit="10"/>
<path d="M312.608 1733.12C312.608 1733.12 283.415 1602.62 452.84 1491.65C622.265 1380.67 758.263 1374.49 825.284 1065.66C871.594 852.245 861.543 628.768 917.937 417.621C941.139 330.747 981.824 246.445 1042.12 179.114C1109.63 103.737 1197.5 50.7987 1270.5 -18.6481C1292.3 -39.3891 1312.88 -61.4115 1330.86 -85.5797" stroke="#E48257" stroke-width="1.1958" stroke-miterlimit="10"/>
</g>
<defs>
<filter id="filter0_d_28_233" x="161.138" y="-1149.85" width="1308.01" height="3446.65" filterUnits="userSpaceOnUse" color-interpolation-filters="sRGB">
<feFlood flood-opacity="0" result="BackgroundImageFix"/>
<feColorMatrix in="SourceAlpha" type="matrix" values="0 0 0 0 0 0 0 0 0 0 0 0 0 0 0 0 0 0 127 0" result="hardAlpha"/>
<feOffset dy="8.6638"/>
<feGaussianBlur stdDeviation="4.3319"/>
<feComposite in2="hardAlpha" operator="out"/>
<feColorMatrix type="matrix" values="0 0 0 0 0 0 0 0 0 0 0 0 0 0 0 0 0 0 0.25 0"/>
<feBlend mode="normal" in2="BackgroundImageFix" result="effect1_dropShadow_28_233"/>
<feBlend mode="normal" in="SourceGraphic" in2="effect1_dropShadow_28_233" result="shape"/>
</filter>
</defs>
</svg>
