<svg width="68" height="70" viewBox="0 0 68 70" fill="none" xmlns="http://www.w3.org/2000/svg">
<path d="M36.5924 17.4562C35.3291 16.7005 34.5157 15.7851 34.1521 14.7099C33.7885 13.6347 33.9106 12.5891 34.5185 11.5731C35.0442 10.6943 35.7622 10.0238 36.6726 9.56165C37.6269 9.08844 38.6611 8.88678 39.7752 8.95667C40.8894 9.02655 41.9682 9.37363 43.0118 9.9979C44.2475 10.7372 45.0253 11.6499 45.345 12.7361C45.7086 13.8113 45.5865 14.8569 44.9786 15.8729C44.4529 16.7517 43.7212 17.4139 42.7833 17.8597C41.8729 18.3219 40.8606 18.518 39.7465 18.4481C38.6598 18.3947 37.6084 18.064 36.5924 17.4562ZM19.3077 44.4795C14.8199 49.7374 9.62391 50.6003 3.71974 47.0683L0.795118 45.3187L6.1049 39.1542L7.83496 40.1892C8.52149 40.5999 9.12539 40.7747 9.64667 40.7137C10.1405 40.6362 10.645 40.3227 11.1601 39.7733L30.9034 16.9615L38.9771 21.7913L19.3077 44.4795ZM35.5107 51.4878C33.5884 50.3378 32.0446 49.0227 30.8792 47.5425C29.7138 46.0623 29.0176 44.5458 28.7906 42.993C28.58 41.4127 28.8854 39.9361 29.7068 38.563C29.8546 38.3158 30.1039 37.9615 30.4545 37.5001L38.2398 42.1574C37.7523 42.9099 37.6325 43.64 37.8804 44.3476C38.1283 45.0552 38.6916 45.6719 39.5704 46.1976C40.2569 46.6083 40.902 46.8078 41.5057 46.796C42.1368 46.8007 42.5838 46.5833 42.8466 46.1439C43.1587 45.6222 43.1086 45.0515 42.6962 44.4319C42.3002 43.7848 41.5609 42.8391 40.4781 41.5947C39.2085 40.164 38.2053 38.9114 37.4685 37.8367C36.7317 36.762 36.25 35.5416 36.0232 34.1754C35.8238 32.8256 36.1513 31.4367 37.0056 30.0087C37.827 28.6356 38.9644 27.6381 40.4179 27.0161C41.8989 26.4105 43.5615 26.2491 45.4058 26.5321C47.2666 26.7876 49.1718 27.4985 51.1216 28.6649C53.2086 29.9135 54.7938 31.3465 55.877 32.964C57.0042 34.5705 57.5688 36.2134 57.571 37.8927C57.6007 39.5885 57.1225 41.1669 56.1366 42.628L48.8868 38.291C49.3579 37.566 49.4831 36.8579 49.2627 36.1667C49.0587 35.448 48.5174 34.8258 47.6386 34.3001C47.007 33.9223 46.4031 33.7475 45.8269 33.7756C45.2507 33.8038 44.8312 34.0376 44.5683 34.477C44.2562 34.9988 44.2981 35.5832 44.6941 36.2302C45.1175 36.8937 45.8899 37.8778 47.0111 39.1825C48.2532 40.5968 49.2345 41.855 49.9548 42.9571C50.7191 44.0482 51.2091 45.2549 51.4249 46.5772C51.657 47.8721 51.3707 49.1923 50.5657 50.5379C49.2022 52.8172 47.1375 54.0245 44.3718 54.1598C41.6224 54.2677 38.6687 53.377 35.5107 51.4878Z" fill="#E48257"/>
</svg>
